<?xml version="1.0" standalone="no"?>
<!DOCTYPE svg PUBLIC "-//W3C//DTD SVG 20010904//EN"
 "http://www.w3.org/TR/2001/REC-SVG-20010904/DTD/svg10.dtd">
<svg version="1.0" xmlns="http://www.w3.org/2000/svg"
 width="700.000000pt" height="700.000000pt" viewBox="0 0 700.000000 700.000000"
 preserveAspectRatio="xMidYMid meet">
<metadata>
Created by potrace 1.11, written by Peter Selinger 2001-2013
</metadata>
<g transform="translate(0.000000,700.000000) scale(0.100000,-0.100000)"
fill="#000000" stroke="none">
<path d="M3367 6644 c-2 -1 -71 -7 -217 -19 -32 -2 -97 -12 -145 -21 -11 -3
-36 -7 -55 -10 -76 -12 -300 -74 -395 -109 -194 -72 -404 -190 -525 -294 -141
-121 -223 -212 -304 -338 -45 -69 -125 -226 -141 -274 -4 -13 -8 -26 -10 -29
-21 -49 -68 -237 -79 -315 -16 -122 -19 -161 -21 -276 -2 -205 30 -436 83
-589 30 -85 83 -210 90 -211 18 -3 1762 -4 1762 -1 0 2 -26 15 -57 28 -100 45
-255 125 -299 155 -24 16 -45 29 -49 29 -3 0 -36 24 -74 54 -193 155 -282 325
-282 545 0 111 14 178 58 271 81 171 302 316 543 355 25 4 54 9 65 12 53 12
386 10 475 -3 242 -36 409 -105 528 -218 71 -67 94 -123 107 -259 9 -88 61
-159 146 -194 17 -8 146 -11 390 -10 l364 2 45 27 c57 33 91 79 105 142 12 56
13 464 1 561 -8 65 -45 185 -73 237 -139 254 -424 462 -816 592 -118 40 -164
53 -292 82 -56 13 -228 43 -275 48 -30 4 -66 8 -80 11 -77 13 -561 29 -573 19z"/>
<path d="M187 3934 c-1 -1 -14 -5 -29 -8 -42 -7 -93 -47 -124 -96 l-29 -45 0
-286 0 -286 35 -51 c22 -33 50 -59 80 -74 l45 -23 3315 -2 c2354 -1 3328 2
3360 10 58 14 134 88 150 145 6 26 10 139 10 294 -1 222 -4 259 -19 294 -23
50 -90 109 -140 121 -33 9 -6645 15 -6654 7z"/>
<path d="M3864 2839 c-2 -4 11 -13 29 -20 54 -22 198 -108 268 -160 37 -27 98
-82 137 -123 191 -202 237 -496 116 -751 -110 -234 -384 -392 -751 -432 -102
-12 -367 -8 -463 6 -319 46 -548 143 -680 288 -80 88 -114 173 -123 309 -7
110 -47 173 -136 212 -40 18 -69 20 -391 20 -388 1 -398 0 -466 -66 -59 -58
-66 -86 -68 -277 -3 -357 45 -540 200 -762 229 -329 680 -585 1229 -699 112
-23 112 -23 159 -29 22 -3 57 -7 76 -10 194 -27 477 -37 654 -23 120 9 214 18
251 24 96 15 210 37 281 55 45 11 88 22 95 23 16 3 125 38 184 60 84 30 229
97 297 136 38 22 72 40 75 40 3 0 42 26 86 57 320 223 517 475 638 815 42 116
83 305 94 428 11 127 6 368 -10 458 -3 17 -8 47 -10 65 -7 54 -50 206 -81 287
l-29 75 -829 0 c-455 0 -830 -3 -832 -6z"/>
</g>
</svg>
